<mxfile host="Electron" modified="2024-04-16T17:50:37.154Z" agent="Mozilla/5.0 (Windows NT 10.0; Win64; x64) AppleWebKit/537.36 (KHTML, like Gecko) draw.io/24.0.4 Chrome/120.0.6099.109 Electron/28.1.0 Safari/537.36" etag="b5ojn5tIRJfpGT-CP-Bn" version="24.0.4" type="device">
  <diagram name="Page-1" id="2YBvvXClWsGukQMizWep">
    <mxGraphModel dx="5349" dy="1206" grid="0" gridSize="10" guides="1" tooltips="1" connect="1" arrows="1" fold="1" page="1" pageScale="1" pageWidth="3300" pageHeight="4681" background="#ffffff" math="0" shadow="0">
      <root>
        <mxCell id="0" />
        <mxCell id="1" parent="0" />
        <mxCell id="Qg9o9xCd_ylWm4-MOZsv-5" style="edgeStyle=elbowEdgeStyle;rounded=0;orthogonalLoop=1;jettySize=auto;html=1;elbow=vertical;curved=0;labelBackgroundColor=none;fontColor=default;" edge="1" parent="1">
          <mxGeometry relative="1" as="geometry">
            <mxPoint x="-2190" y="403" as="sourcePoint" />
            <mxPoint x="-2030" y="403" as="targetPoint" />
          </mxGeometry>
        </mxCell>
        <mxCell id="Qg9o9xCd_ylWm4-MOZsv-7" style="edgeStyle=elbowEdgeStyle;rounded=0;orthogonalLoop=1;jettySize=auto;html=1;elbow=vertical;curved=0;labelBackgroundColor=none;fontColor=default;" edge="1" parent="1">
          <mxGeometry relative="1" as="geometry">
            <mxPoint x="-2190" y="453" as="sourcePoint" />
            <mxPoint x="-2030" y="453" as="targetPoint" />
          </mxGeometry>
        </mxCell>
        <mxCell id="aM9ryv3xv72pqoxQDRHE-1" value="User" style="shape=umlLifeline;perimeter=lifelinePerimeter;whiteSpace=wrap;html=1;container=0;dropTarget=0;collapsible=0;recursiveResize=0;outlineConnect=0;portConstraint=eastwest;newEdgeStyle={&quot;edgeStyle&quot;:&quot;elbowEdgeStyle&quot;,&quot;elbow&quot;:&quot;vertical&quot;,&quot;curved&quot;:0,&quot;rounded&quot;:0};rounded=1;strokeWidth=2;labelBackgroundColor=none;fillColor=#a20025;fontColor=#ffffff;strokeColor=#6F0000;" parent="1" vertex="1">
          <mxGeometry x="-2240" y="323" width="100" height="1240" as="geometry" />
        </mxCell>
        <mxCell id="Qg9o9xCd_ylWm4-MOZsv-9" style="edgeStyle=elbowEdgeStyle;rounded=0;orthogonalLoop=1;jettySize=auto;html=1;elbow=vertical;curved=0;labelBackgroundColor=none;fontColor=default;" edge="1" parent="1">
          <mxGeometry relative="1" as="geometry">
            <mxPoint x="-2030" y="493.33" as="sourcePoint" />
            <mxPoint x="-1870" y="493.33" as="targetPoint" />
          </mxGeometry>
        </mxCell>
        <mxCell id="aM9ryv3xv72pqoxQDRHE-5" value="UI/Main Window" style="shape=umlLifeline;perimeter=lifelinePerimeter;whiteSpace=wrap;html=1;container=0;dropTarget=0;collapsible=0;recursiveResize=0;outlineConnect=0;portConstraint=eastwest;newEdgeStyle={&quot;edgeStyle&quot;:&quot;elbowEdgeStyle&quot;,&quot;elbow&quot;:&quot;vertical&quot;,&quot;curved&quot;:0,&quot;rounded&quot;:0};rounded=1;strokeWidth=2;labelBackgroundColor=none;fillColor=#a20025;fontColor=#ffffff;strokeColor=#6F0000;" parent="1" vertex="1">
          <mxGeometry x="-2080" y="323" width="100" height="1240" as="geometry" />
        </mxCell>
        <mxCell id="Qg9o9xCd_ylWm4-MOZsv-11" style="edgeStyle=elbowEdgeStyle;rounded=0;orthogonalLoop=1;jettySize=auto;html=1;elbow=vertical;curved=0;labelBackgroundColor=none;fontColor=default;" edge="1" parent="1" source="Qg9o9xCd_ylWm4-MOZsv-1">
          <mxGeometry relative="1" as="geometry">
            <mxPoint x="-1750.5" y="533" as="sourcePoint" />
            <mxPoint x="-1590.5" y="533" as="targetPoint" />
          </mxGeometry>
        </mxCell>
        <mxCell id="Qg9o9xCd_ylWm4-MOZsv-16" style="edgeStyle=elbowEdgeStyle;rounded=0;orthogonalLoop=1;jettySize=auto;html=1;elbow=vertical;curved=0;labelBackgroundColor=none;fontColor=default;" edge="1" parent="1" source="Qg9o9xCd_ylWm4-MOZsv-1">
          <mxGeometry relative="1" as="geometry">
            <mxPoint x="-1750.5" y="683" as="sourcePoint" />
            <mxPoint x="-1590.5" y="683" as="targetPoint" />
          </mxGeometry>
        </mxCell>
        <mxCell id="Qg9o9xCd_ylWm4-MOZsv-51" style="edgeStyle=elbowEdgeStyle;rounded=0;orthogonalLoop=1;jettySize=auto;html=1;elbow=vertical;curved=0;labelBackgroundColor=none;fontColor=default;" edge="1" parent="1">
          <mxGeometry relative="1" as="geometry">
            <mxPoint x="-1870" y="1483" as="sourcePoint" />
            <mxPoint x="-2030" y="1483" as="targetPoint" />
          </mxGeometry>
        </mxCell>
        <mxCell id="Qg9o9xCd_ylWm4-MOZsv-1" value="Handler" style="shape=umlLifeline;perimeter=lifelinePerimeter;whiteSpace=wrap;html=1;container=0;dropTarget=0;collapsible=0;recursiveResize=0;outlineConnect=0;portConstraint=eastwest;newEdgeStyle={&quot;edgeStyle&quot;:&quot;elbowEdgeStyle&quot;,&quot;elbow&quot;:&quot;vertical&quot;,&quot;curved&quot;:0,&quot;rounded&quot;:0};rounded=1;strokeWidth=2;labelBackgroundColor=none;fillColor=#a20025;fontColor=#ffffff;strokeColor=#6F0000;" vertex="1" parent="1">
          <mxGeometry x="-1920" y="323" width="100" height="1240" as="geometry" />
        </mxCell>
        <mxCell id="Qg9o9xCd_ylWm4-MOZsv-13" style="edgeStyle=elbowEdgeStyle;rounded=0;orthogonalLoop=1;jettySize=auto;html=1;elbow=vertical;curved=0;labelBackgroundColor=none;fontColor=default;" edge="1" parent="1" target="Qg9o9xCd_ylWm4-MOZsv-1">
          <mxGeometry relative="1" as="geometry">
            <mxPoint x="-1590.5" y="593" as="sourcePoint" />
            <mxPoint x="-1750.5" y="593" as="targetPoint" />
          </mxGeometry>
        </mxCell>
        <mxCell id="Qg9o9xCd_ylWm4-MOZsv-18" style="edgeStyle=elbowEdgeStyle;rounded=0;orthogonalLoop=1;jettySize=auto;html=1;elbow=vertical;curved=0;labelBackgroundColor=none;fontColor=default;" edge="1" parent="1" target="Qg9o9xCd_ylWm4-MOZsv-1">
          <mxGeometry relative="1" as="geometry">
            <mxPoint x="-1585" y="843.33" as="sourcePoint" />
            <mxPoint x="-1745" y="843.33" as="targetPoint" />
          </mxGeometry>
        </mxCell>
        <mxCell id="Qg9o9xCd_ylWm4-MOZsv-2" value="EEG Interface" style="shape=umlLifeline;perimeter=lifelinePerimeter;whiteSpace=wrap;html=1;container=0;dropTarget=0;collapsible=0;recursiveResize=0;outlineConnect=0;portConstraint=eastwest;newEdgeStyle={&quot;edgeStyle&quot;:&quot;elbowEdgeStyle&quot;,&quot;elbow&quot;:&quot;vertical&quot;,&quot;curved&quot;:0,&quot;rounded&quot;:0};rounded=1;strokeWidth=2;labelBackgroundColor=none;fillColor=#a20025;fontColor=#ffffff;strokeColor=#6F0000;" vertex="1" parent="1">
          <mxGeometry x="-1640" y="323" width="100" height="1240" as="geometry" />
        </mxCell>
        <mxCell id="Qg9o9xCd_ylWm4-MOZsv-3" value="Visual Feedback" style="shape=umlLifeline;perimeter=lifelinePerimeter;whiteSpace=wrap;html=1;container=0;dropTarget=0;collapsible=0;recursiveResize=0;outlineConnect=0;portConstraint=eastwest;newEdgeStyle={&quot;edgeStyle&quot;:&quot;elbowEdgeStyle&quot;,&quot;elbow&quot;:&quot;vertical&quot;,&quot;curved&quot;:0,&quot;rounded&quot;:0};rounded=1;strokeWidth=2;labelBackgroundColor=none;fillColor=#a20025;fontColor=#ffffff;strokeColor=#6F0000;" vertex="1" parent="1">
          <mxGeometry x="-1480" y="323" width="100" height="1240" as="geometry" />
        </mxCell>
        <mxCell id="Qg9o9xCd_ylWm4-MOZsv-4" value="Session Log" style="shape=umlLifeline;perimeter=lifelinePerimeter;whiteSpace=wrap;html=1;container=0;dropTarget=0;collapsible=0;recursiveResize=0;outlineConnect=0;portConstraint=eastwest;newEdgeStyle={&quot;edgeStyle&quot;:&quot;elbowEdgeStyle&quot;,&quot;elbow&quot;:&quot;vertical&quot;,&quot;curved&quot;:0,&quot;rounded&quot;:0};rounded=1;strokeWidth=2;labelBackgroundColor=none;fillColor=#a20025;fontColor=#ffffff;strokeColor=#6F0000;" vertex="1" parent="1">
          <mxGeometry x="-1160" y="323" width="100" height="1240" as="geometry" />
        </mxCell>
        <mxCell id="Qg9o9xCd_ylWm4-MOZsv-6" value="Power on the device" style="text;html=1;align=center;verticalAlign=middle;resizable=0;points=[];autosize=1;strokeColor=none;fillColor=none;labelBackgroundColor=none;" vertex="1" parent="1">
          <mxGeometry x="-2190" y="403" width="130" height="30" as="geometry" />
        </mxCell>
        <mxCell id="Qg9o9xCd_ylWm4-MOZsv-8" value="select &quot;New Session&quot;&amp;nbsp;&lt;div&gt;menu option&lt;/div&gt;" style="text;html=1;align=center;verticalAlign=middle;resizable=0;points=[];autosize=1;strokeColor=none;fillColor=none;labelBackgroundColor=none;" vertex="1" parent="1">
          <mxGeometry x="-2195" y="453" width="140" height="40" as="geometry" />
        </mxCell>
        <mxCell id="Qg9o9xCd_ylWm4-MOZsv-10" value="Initialize a new session" style="text;html=1;align=center;verticalAlign=middle;resizable=0;points=[];autosize=1;strokeColor=none;fillColor=none;labelBackgroundColor=none;" vertex="1" parent="1">
          <mxGeometry x="-2040" y="503" width="150" height="30" as="geometry" />
        </mxCell>
        <mxCell id="Qg9o9xCd_ylWm4-MOZsv-12" value="Calculate overall&amp;nbsp;&lt;span style=&quot;background-color: initial;&quot;&gt;baseline frequencey&amp;nbsp;&lt;/span&gt;" style="text;html=1;align=center;verticalAlign=middle;resizable=0;points=[];autosize=1;strokeColor=none;fillColor=none;labelBackgroundColor=none;" vertex="1" parent="1">
          <mxGeometry x="-1812.5" y="598" width="230" height="30" as="geometry" />
        </mxCell>
        <mxCell id="Qg9o9xCd_ylWm4-MOZsv-14" value="Overall baseline&amp;nbsp;&lt;span style=&quot;background-color: initial;&quot;&gt;frequencey&amp;nbsp;&lt;/span&gt;&lt;span style=&quot;background-color: initial;&quot;&gt;calculated&lt;/span&gt;" style="text;html=1;align=center;verticalAlign=middle;resizable=0;points=[];autosize=1;strokeColor=none;fillColor=none;labelBackgroundColor=none;" vertex="1" parent="1">
          <mxGeometry x="-1877.5" y="533" width="230" height="30" as="geometry" />
        </mxCell>
        <mxCell id="Qg9o9xCd_ylWm4-MOZsv-15" value="[For each EEG site]" style="text;html=1;align=center;verticalAlign=middle;resizable=0;points=[];autosize=1;strokeColor=none;fillColor=none;labelBackgroundColor=none;" vertex="1" parent="1">
          <mxGeometry x="-1735" y="643" width="130" height="30" as="geometry" />
        </mxCell>
        <mxCell id="Qg9o9xCd_ylWm4-MOZsv-17" value="read the signal from&amp;nbsp;&lt;span style=&quot;background-color: initial;&quot;&gt;EEG site&lt;/span&gt;" style="text;html=1;align=center;verticalAlign=middle;resizable=0;points=[];autosize=1;strokeColor=none;fillColor=none;labelBackgroundColor=none;" vertex="1" parent="1">
          <mxGeometry x="-1875" y="688" width="180" height="30" as="geometry" />
        </mxCell>
        <mxCell id="Qg9o9xCd_ylWm4-MOZsv-19" value="signal read and displayed" style="text;html=1;align=center;verticalAlign=middle;resizable=0;points=[];autosize=1;strokeColor=none;fillColor=none;labelBackgroundColor=none;" vertex="1" parent="1">
          <mxGeometry x="-1750" y="848" width="160" height="30" as="geometry" />
        </mxCell>
        <mxCell id="Qg9o9xCd_ylWm4-MOZsv-20" style="edgeStyle=elbowEdgeStyle;rounded=0;orthogonalLoop=1;jettySize=auto;html=1;elbow=vertical;curved=0;labelBackgroundColor=none;fontColor=default;" edge="1" parent="1">
          <mxGeometry relative="1" as="geometry">
            <mxPoint x="-1868.333333333333" y="912.9966666666668" as="sourcePoint" />
            <mxPoint x="-1590" y="913.33" as="targetPoint" />
          </mxGeometry>
        </mxCell>
        <mxCell id="Qg9o9xCd_ylWm4-MOZsv-21" value="calculate baseline&lt;span style=&quot;background-color: initial;&quot;&gt;&amp;nbsp;frequency for site&lt;/span&gt;" style="text;html=1;align=center;verticalAlign=middle;resizable=0;points=[];autosize=1;strokeColor=none;fillColor=none;labelBackgroundColor=none;" vertex="1" parent="1">
          <mxGeometry x="-1875" y="918" width="210" height="30" as="geometry" />
        </mxCell>
        <mxCell id="Qg9o9xCd_ylWm4-MOZsv-22" style="edgeStyle=elbowEdgeStyle;rounded=0;orthogonalLoop=1;jettySize=auto;html=1;elbow=vertical;curved=0;labelBackgroundColor=none;fontColor=default;" edge="1" parent="1" target="Qg9o9xCd_ylWm4-MOZsv-1">
          <mxGeometry relative="1" as="geometry">
            <mxPoint x="-1587.5" y="963.33" as="sourcePoint" />
            <mxPoint x="-1747.5" y="963.33" as="targetPoint" />
          </mxGeometry>
        </mxCell>
        <mxCell id="Qg9o9xCd_ylWm4-MOZsv-23" value="baseline frequency&amp;nbsp;&lt;span style=&quot;background-color: initial;&quot;&gt;calculated&lt;/span&gt;" style="text;html=1;align=center;verticalAlign=middle;resizable=0;points=[];autosize=1;strokeColor=none;fillColor=none;labelBackgroundColor=none;" vertex="1" parent="1">
          <mxGeometry x="-1762.5" y="963" width="180" height="30" as="geometry" />
        </mxCell>
        <mxCell id="Qg9o9xCd_ylWm4-MOZsv-24" style="edgeStyle=elbowEdgeStyle;rounded=0;orthogonalLoop=1;jettySize=auto;html=1;elbow=vertical;curved=0;labelBackgroundColor=none;fontColor=default;" edge="1" parent="1" target="Qg9o9xCd_ylWm4-MOZsv-3">
          <mxGeometry relative="1" as="geometry">
            <mxPoint x="-1872.6633333333334" y="1033.003333333333" as="sourcePoint" />
            <mxPoint x="-1432" y="1033" as="targetPoint" />
            <Array as="points">
              <mxPoint x="-1870" y="1033" />
            </Array>
          </mxGeometry>
        </mxCell>
        <mxCell id="Qg9o9xCd_ylWm4-MOZsv-25" value="Turn on green light" style="text;html=1;align=center;verticalAlign=middle;resizable=0;points=[];autosize=1;strokeColor=none;fillColor=none;labelBackgroundColor=none;" vertex="1" parent="1">
          <mxGeometry x="-1875" y="1033" width="120" height="30" as="geometry" />
        </mxCell>
        <mxCell id="Qg9o9xCd_ylWm4-MOZsv-28" value="apply offset frequency of 5hz" style="text;html=1;align=center;verticalAlign=middle;resizable=0;points=[];autosize=1;strokeColor=none;fillColor=none;labelBackgroundColor=none;" vertex="1" parent="1">
          <mxGeometry x="-1875" y="1123" width="180" height="30" as="geometry" />
        </mxCell>
        <mxCell id="Qg9o9xCd_ylWm4-MOZsv-29" style="edgeStyle=elbowEdgeStyle;rounded=0;orthogonalLoop=1;jettySize=auto;html=1;elbow=vertical;curved=0;labelBackgroundColor=none;fontColor=default;" edge="1" parent="1" target="Qg9o9xCd_ylWm4-MOZsv-1">
          <mxGeometry relative="1" as="geometry">
            <mxPoint x="-1590" y="1173" as="sourcePoint" />
            <mxPoint x="-1750" y="1173" as="targetPoint" />
          </mxGeometry>
        </mxCell>
        <mxCell id="Qg9o9xCd_ylWm4-MOZsv-30" value="frequency applied&amp;nbsp;" style="text;html=1;align=center;verticalAlign=middle;resizable=0;points=[];autosize=1;strokeColor=none;fillColor=none;labelBackgroundColor=none;" vertex="1" parent="1">
          <mxGeometry x="-1702.5" y="1173" width="120" height="30" as="geometry" />
        </mxCell>
        <mxCell id="Qg9o9xCd_ylWm4-MOZsv-31" style="edgeStyle=elbowEdgeStyle;rounded=0;orthogonalLoop=1;jettySize=auto;html=1;elbow=vertical;curved=0;labelBackgroundColor=none;fontColor=default;" edge="1" parent="1">
          <mxGeometry relative="1" as="geometry">
            <mxPoint x="-1862.5" y="1233" as="sourcePoint" />
            <mxPoint x="-1430.5" y="1233" as="targetPoint" />
            <Array as="points">
              <mxPoint x="-1870" y="1233" />
            </Array>
          </mxGeometry>
        </mxCell>
        <mxCell id="Qg9o9xCd_ylWm4-MOZsv-32" value="Turn off green light" style="text;html=1;align=center;verticalAlign=middle;resizable=0;points=[];autosize=1;strokeColor=none;fillColor=none;labelBackgroundColor=none;" vertex="1" parent="1">
          <mxGeometry x="-1870" y="1233" width="120" height="30" as="geometry" />
        </mxCell>
        <mxCell id="Qg9o9xCd_ylWm4-MOZsv-33" style="edgeStyle=elbowEdgeStyle;rounded=0;orthogonalLoop=1;jettySize=auto;html=1;elbow=vertical;curved=0;labelBackgroundColor=none;fontColor=default;" edge="1" parent="1" target="Qg9o9xCd_ylWm4-MOZsv-2">
          <mxGeometry relative="1" as="geometry">
            <mxPoint x="-1875" y="1123" as="sourcePoint" />
            <mxPoint x="-1715" y="1123" as="targetPoint" />
          </mxGeometry>
        </mxCell>
        <mxCell id="Qg9o9xCd_ylWm4-MOZsv-34" value="calculate final overall&amp;nbsp;&lt;span style=&quot;background-color: initial;&quot;&gt;baseline frequency&lt;/span&gt;" style="text;html=1;align=center;verticalAlign=middle;resizable=0;points=[];autosize=1;strokeColor=none;fillColor=none;labelBackgroundColor=none;" vertex="1" parent="1">
          <mxGeometry x="-1875" y="1283" width="240" height="30" as="geometry" />
        </mxCell>
        <mxCell id="Qg9o9xCd_ylWm4-MOZsv-35" style="edgeStyle=elbowEdgeStyle;rounded=0;orthogonalLoop=1;jettySize=auto;html=1;elbow=vertical;curved=0;labelBackgroundColor=none;fontColor=default;" edge="1" parent="1" target="Qg9o9xCd_ylWm4-MOZsv-1">
          <mxGeometry relative="1" as="geometry">
            <mxPoint x="-1590" y="1333" as="sourcePoint" />
            <mxPoint x="-1750" y="1333" as="targetPoint" />
          </mxGeometry>
        </mxCell>
        <mxCell id="Qg9o9xCd_ylWm4-MOZsv-36" value="final overall baseline&amp;nbsp;&lt;span style=&quot;background-color: initial;&quot;&gt;frequency calculated&lt;/span&gt;" style="text;html=1;align=center;verticalAlign=middle;resizable=0;points=[];autosize=1;strokeColor=none;fillColor=none;labelBackgroundColor=none;" vertex="1" parent="1">
          <mxGeometry x="-1832.5" y="1333" width="250" height="30" as="geometry" />
        </mxCell>
        <mxCell id="Qg9o9xCd_ylWm4-MOZsv-37" style="edgeStyle=elbowEdgeStyle;rounded=0;orthogonalLoop=1;jettySize=auto;html=1;elbow=vertical;curved=0;labelBackgroundColor=none;fontColor=default;" edge="1" parent="1" target="Qg9o9xCd_ylWm4-MOZsv-4">
          <mxGeometry relative="1" as="geometry">
            <mxPoint x="-1870" y="1383" as="sourcePoint" />
            <mxPoint x="-1230.5" y="1383.3333333333335" as="targetPoint" />
            <Array as="points">
              <mxPoint x="-1100" y="1383" />
            </Array>
          </mxGeometry>
        </mxCell>
        <mxCell id="Qg9o9xCd_ylWm4-MOZsv-38" value="Log session data" style="text;html=1;align=center;verticalAlign=middle;resizable=0;points=[];autosize=1;strokeColor=none;fillColor=none;labelBackgroundColor=none;" vertex="1" parent="1">
          <mxGeometry x="-1870" y="1383" width="110" height="30" as="geometry" />
        </mxCell>
        <mxCell id="Qg9o9xCd_ylWm4-MOZsv-39" style="edgeStyle=elbowEdgeStyle;rounded=0;orthogonalLoop=1;jettySize=auto;html=1;elbow=vertical;curved=0;labelBackgroundColor=none;fontColor=default;" edge="1" parent="1">
          <mxGeometry relative="1" as="geometry">
            <mxPoint x="-1269.5" y="1443" as="sourcePoint" />
            <mxPoint x="-1870" y="1443" as="targetPoint" />
            <Array as="points">
              <mxPoint x="-1109.5" y="1443" />
            </Array>
          </mxGeometry>
        </mxCell>
        <mxCell id="Qg9o9xCd_ylWm4-MOZsv-40" value="Data logged" style="text;html=1;align=center;verticalAlign=middle;resizable=0;points=[];autosize=1;strokeColor=none;fillColor=none;labelBackgroundColor=none;" vertex="1" parent="1">
          <mxGeometry x="-1200" y="1443" width="90" height="30" as="geometry" />
        </mxCell>
        <mxCell id="Qg9o9xCd_ylWm4-MOZsv-41" value="Wave Form Graph" style="shape=umlLifeline;perimeter=lifelinePerimeter;whiteSpace=wrap;html=1;container=0;dropTarget=0;collapsible=0;recursiveResize=0;outlineConnect=0;portConstraint=eastwest;newEdgeStyle={&quot;edgeStyle&quot;:&quot;elbowEdgeStyle&quot;,&quot;elbow&quot;:&quot;vertical&quot;,&quot;curved&quot;:0,&quot;rounded&quot;:0};shadow=0;textShadow=0;glass=0;rounded=1;strokeWidth=2;labelBackgroundColor=none;fillColor=#a20025;fontColor=#ffffff;strokeColor=#6F0000;" vertex="1" parent="1">
          <mxGeometry x="-1320" y="323" width="100" height="1240" as="geometry" />
        </mxCell>
        <mxCell id="Qg9o9xCd_ylWm4-MOZsv-43" style="edgeStyle=elbowEdgeStyle;rounded=0;orthogonalLoop=1;jettySize=auto;html=1;elbow=vertical;curved=0;labelBackgroundColor=none;fontColor=default;" edge="1" parent="1" target="Qg9o9xCd_ylWm4-MOZsv-41">
          <mxGeometry relative="1" as="geometry">
            <mxPoint x="-1590" y="723" as="sourcePoint" />
            <mxPoint x="-1309.5" y="723" as="targetPoint" />
          </mxGeometry>
        </mxCell>
        <mxCell id="Qg9o9xCd_ylWm4-MOZsv-44" value="Generate waveform data" style="text;html=1;align=center;verticalAlign=middle;resizable=0;points=[];autosize=1;strokeColor=none;fillColor=none;labelBackgroundColor=none;" vertex="1" parent="1">
          <mxGeometry x="-1600" y="723" width="160" height="30" as="geometry" />
        </mxCell>
        <mxCell id="Qg9o9xCd_ylWm4-MOZsv-45" style="edgeStyle=elbowEdgeStyle;rounded=0;orthogonalLoop=1;jettySize=auto;html=1;elbow=vertical;curved=0;labelBackgroundColor=none;fontColor=default;" edge="1" parent="1" target="aM9ryv3xv72pqoxQDRHE-5">
          <mxGeometry relative="1" as="geometry">
            <mxPoint x="-1270" y="783.33" as="sourcePoint" />
            <mxPoint x="-1430" y="783.33" as="targetPoint" />
          </mxGeometry>
        </mxCell>
        <mxCell id="Qg9o9xCd_ylWm4-MOZsv-46" value="Display waveform graph" style="text;html=1;align=center;verticalAlign=middle;resizable=0;points=[];autosize=1;strokeColor=none;fillColor=none;labelBackgroundColor=none;" vertex="1" parent="1">
          <mxGeometry x="-1420" y="783" width="150" height="30" as="geometry" />
        </mxCell>
        <mxCell id="Qg9o9xCd_ylWm4-MOZsv-26" value="[Apply frequency for every&amp;nbsp;&lt;div&gt;&lt;span style=&quot;background-color: initial;&quot;&gt;1/16 second for 1 second]&lt;/span&gt;&lt;/div&gt;" style="text;html=1;align=center;verticalAlign=middle;resizable=0;points=[];autosize=1;strokeColor=none;fillColor=none;labelBackgroundColor=none;" vertex="1" parent="1">
          <mxGeometry x="-1807.5" y="1068" width="170" height="40" as="geometry" />
        </mxCell>
        <mxCell id="Qg9o9xCd_ylWm4-MOZsv-50" style="edgeStyle=elbowEdgeStyle;rounded=0;orthogonalLoop=1;jettySize=auto;html=1;elbow=vertical;curved=0;labelBackgroundColor=none;fontColor=default;" edge="1" parent="1">
          <mxGeometry relative="1" as="geometry">
            <mxPoint x="-1868.333333333333" y="1282.996666666667" as="sourcePoint" />
            <mxPoint x="-1590" y="1283.33" as="targetPoint" />
          </mxGeometry>
        </mxCell>
        <mxCell id="Qg9o9xCd_ylWm4-MOZsv-52" value="session completed" style="text;html=1;align=center;verticalAlign=middle;resizable=0;points=[];autosize=1;strokeColor=none;fillColor=none;labelBackgroundColor=none;" vertex="1" parent="1">
          <mxGeometry x="-1990" y="1483" width="120" height="30" as="geometry" />
        </mxCell>
        <mxCell id="Qg9o9xCd_ylWm4-MOZsv-53" style="edgeStyle=elbowEdgeStyle;rounded=0;orthogonalLoop=1;jettySize=auto;html=1;elbow=vertical;curved=0;labelBackgroundColor=none;fontColor=default;" edge="1" parent="1">
          <mxGeometry relative="1" as="geometry">
            <mxPoint x="-2030" y="1523" as="sourcePoint" />
            <mxPoint x="-2190" y="1523" as="targetPoint" />
          </mxGeometry>
        </mxCell>
        <mxCell id="Qg9o9xCd_ylWm4-MOZsv-54" value="display session completion&amp;nbsp;" style="text;html=1;align=center;verticalAlign=middle;resizable=0;points=[];autosize=1;strokeColor=none;fillColor=none;labelBackgroundColor=none;" vertex="1" parent="1">
          <mxGeometry x="-2190" y="1523" width="170" height="30" as="geometry" />
        </mxCell>
        <mxCell id="Qg9o9xCd_ylWm4-MOZsv-55" value="Loop" style="shape=umlFrame;whiteSpace=wrap;html=1;pointerEvents=0;dashed=1;dashPattern=12 12;shadow=0;textShadow=0;labelBackgroundColor=none;fillColor=#a20025;fontColor=#ffffff;strokeColor=#6F0000;" vertex="1" parent="1">
          <mxGeometry x="-2100" y="633" width="880" height="630" as="geometry" />
        </mxCell>
        <mxCell id="Qg9o9xCd_ylWm4-MOZsv-56" value="Loop" style="shape=umlFrame;whiteSpace=wrap;html=1;pointerEvents=0;dashed=1;dashPattern=8 8;shadow=0;textShadow=0;labelBackgroundColor=none;fillColor=#a20025;fontColor=#ffffff;strokeColor=#6F0000;" vertex="1" parent="1">
          <mxGeometry x="-1900" y="1063" width="340" height="140" as="geometry" />
        </mxCell>
        <mxCell id="Qg9o9xCd_ylWm4-MOZsv-57" value="&lt;font style=&quot;font-size: 18px;&quot;&gt;Team : 24&lt;/font&gt;" style="text;html=1;align=center;verticalAlign=middle;resizable=0;points=[];autosize=1;strokeColor=none;fillColor=none;" vertex="1" parent="1">
          <mxGeometry x="-1698" y="88" width="97" height="34" as="geometry" />
        </mxCell>
        <mxCell id="Qg9o9xCd_ylWm4-MOZsv-58" value="&lt;font style=&quot;font-size: 18px;&quot;&gt;Sequence Diagram : Success Scenario&amp;nbsp;&lt;/font&gt;" style="text;html=1;align=center;verticalAlign=middle;resizable=0;points=[];autosize=1;strokeColor=none;fillColor=none;" vertex="1" parent="1">
          <mxGeometry x="-1818" y="118" width="336" height="34" as="geometry" />
        </mxCell>
        <mxCell id="Qg9o9xCd_ylWm4-MOZsv-59" value="&lt;font style=&quot;font-size: 18px;&quot;&gt;Normal Operation of Treatment with Neureset Device&lt;/font&gt;" style="text;html=1;align=center;verticalAlign=middle;resizable=0;points=[];autosize=1;strokeColor=none;fillColor=none;" vertex="1" parent="1">
          <mxGeometry x="-1870" y="149" width="441" height="34" as="geometry" />
        </mxCell>
        <mxCell id="Qg9o9xCd_ylWm4-MOZsv-61" value="&lt;font style=&quot;font-size: 18px;&quot;&gt;COMP 3004 Final Project&lt;/font&gt;" style="text;html=1;align=center;verticalAlign=middle;resizable=0;points=[];autosize=1;strokeColor=none;fillColor=none;" vertex="1" parent="1">
          <mxGeometry x="-2472" y="61" width="222" height="34" as="geometry" />
        </mxCell>
      </root>
    </mxGraphModel>
  </diagram>
</mxfile>
